<svg id="Calque_1" data-name="Calque 1" xmlns="http://www.w3.org/2000/svg" viewBox="0 0 85.2 108.05"><title>Icons Youtube Section-02</title><path d="M22.19,88.8h-2.3V87.12h6.47V88.8H24.07v5.88H22.19Z" style="fill:#fff"/><path d="M33.7,94.68,32,92.31h-.93v2.37H29.23V87.12h3.51a2.64,2.64,0,0,1,2.87,2.6A2.48,2.48,0,0,1,34,92.08l1.82,2.6ZM31.11,90.6h1.46c.65,0,1.11-.36,1.11-.88s-.46-.88-1.11-.88H31.11Z" style="fill:#fff"/><path d="M43.59,93.58h-3l-.44,1.1H38l3-7.56h2.11l3,7.56H44ZM43,92.1l-.92-2.32-.91,2.32Z" style="fill:#fff"/><path d="M48.5,90.89A4,4,0,0,1,52.56,87a4.13,4.13,0,0,1,3,1.3l-1.38,1.22a2.09,2.09,0,0,0-1.63-.82,2.21,2.21,0,0,0,0,4.41,2.13,2.13,0,0,0,1.64-.81l1.37,1.21a4.14,4.14,0,0,1-3,1.31A4,4,0,0,1,48.5,90.89Z" style="fill:#fff"/><path d="M58.39,87.12h1.88v3.22l2.81-3.22h2.23l-2.87,3.21,3.09,4.35H63.27l-2.13-3-.87.94v2.06H58.39Z" style="fill:#fff"/><path d="M.52,104.09a4,4,0,0,1,4.06-3.9,3.91,3.91,0,1,1,0,7.82A4,4,0,0,1,.52,104.09Zm6.19,0a2.2,2.2,0,0,0-2.13-2.2,2.21,2.21,0,0,0,0,4.41A2.2,2.2,0,0,0,6.71,104.09Z" style="fill:#fff"/><path d="M13.5,102v1.36h3.69V105H13.5v2.84H11.62v-7.56h6V102Z" style="fill:#fff"/><path d="M27.36,102h-2.3v-1.68h6.47V102H29.24v5.88H27.36Z" style="fill:#fff"/><path d="M41.25,100.32v7.56H39.37v-3H36.28v3H34.4v-7.56h1.88v2.86h3.09v-2.86Z" style="fill:#fff"/><path d="M46.41,102v1.18H50.1v1.68H46.41v1.33h4.07v1.69H44.53v-7.56h5.95V102Z" style="fill:#fff"/><path d="M58.44,100.32H61.2c2.6,0,4.43,1.56,4.43,3.77s-1.83,3.79-4.43,3.79H58.44Zm3.05,5.85a2.08,2.08,0,1,0,0-4.15H60.32v4.15Z" style="fill:#fff"/><path d="M73.17,106.78h-3l-.44,1.1H67.63l3-7.56h2.11l3,7.56H73.61Zm-.58-1.48L71.68,103l-.92,2.32Z" style="fill:#fff"/><path d="M80.2,105.27l-2.93-5h2.17l1.71,3.19,1.78-3.19H85l-2.93,5v2.61H80.2Z" style="fill:#fff"/><path d="M79.71,60.4H65.78V74.34l-15-15a32.5,32.5,0,0,0,17-10.88Zm-62.35-12-12,12H19.33V74.33l15-15A32.54,32.54,0,0,1,17.36,48.43ZM70.42,27.87A27.87,27.87,0,1,1,42.55,0,27.87,27.87,0,0,1,70.42,27.87ZM61.13,24.4A10.36,10.36,0,0,0,42.62,18a10.35,10.35,0,0,0-18.5,6.43c0,4,4.56,8.14,4.56,8.14L42.59,46.45,56.5,32.54S61.13,28.44,61.13,24.4Z" style="fill:#fff"/></svg>