<svg id="Calque_1" data-name="Calque 1" xmlns="http://www.w3.org/2000/svg" viewBox="0 0 81.8 108.05"><title>Icons Youtube Section-02</title><path d="M81.7,0,21.8,5V49a13.91,13.91,0,1,0,6,11.4V32.5l47.9-4V38.8a13.91,13.91,0,1,0,6,11.4V50h0ZM13.9,68.2a7.9,7.9,0,1,1,7.9-7.9,7.9,7.9,0,0,1-7.9,7.9ZM27.8,26.5v-16l47.9-4v16ZM67.9,58.1a7.9,7.9,0,1,1,7.9-7.9,7.9,7.9,0,0,1-7.9,7.9Z" style="fill:#fff"/><path d="M25.18,87.12h1.88l3.29,4.47V87.12h1.88v7.56H30.35l-3.29-4.47v4.47H25.18Z" style="fill:#fff"/><path d="M35.25,90.89a4.07,4.07,0,1,1,4.06,3.92A4,4,0,0,1,35.25,90.89Zm6.2,0a2.14,2.14,0,1,0-2.14,2.21A2.2,2.2,0,0,0,41.45,90.89Z" style="fill:#fff"/><path d="M45.57,87.12h2l1.16,4.72,1.57-4.72h2l1.56,4.72,1.15-4.72h2l-2.19,7.56H53l-1.69-4.79-1.68,4.79H47.77Z" style="fill:#fff"/><path d="M11.24,100.32h3.51a2.61,2.61,0,1,1,0,5.19H13.13v2.37H11.24Zm3.34,3.48c.65,0,1.11-.36,1.11-.88s-.46-.88-1.11-.88H13.13v1.76Z" style="fill:#fff"/><path d="M25.92,106.19v1.69H20.41v-7.56h1.87v5.87Z" style="fill:#fff"/><path d="M33.7,106.78h-3l-.44,1.1H28.15l3-7.56h2.12l3,7.56H34.14Zm-.59-1.48L32.2,103l-.91,2.32Z" style="fill:#fff"/><path d="M40.72,105.27l-2.92-5H40l1.7,3.19,1.78-3.19h2.09l-2.92,5v2.61h-1.9Z" style="fill:#fff"/><path d="M48.13,100.32H50v7.56H48.13Z" style="fill:#fff"/><path d="M53.34,100.32h1.88l3.29,4.47v-4.47h1.88v7.56H58.51l-3.29-4.47v4.47H53.34Z" style="fill:#fff"/><path d="M67.17,103.54h3.44v3.16A4.25,4.25,0,0,1,67.52,108a3.91,3.91,0,1,1,0-7.82,4.28,4.28,0,0,1,3.09,1.3l-1.37,1.22a2.25,2.25,0,0,0-1.72-.82,2.21,2.21,0,0,0,0,4.41,2.34,2.34,0,0,0,1.27-.39v-1H67.17Z" style="fill:#fff"/></svg>